<?xml version="1.0" encoding="utf-8"?>
<!-- Generator: Adobe Illustrator 23.0.1, SVG Export Plug-In . SVG Version: 6.00 Build 0)  -->
<svg version="1.1" id="Layer_1" xmlns="http://www.w3.org/2000/svg" xmlns:xlink="http://www.w3.org/1999/xlink" x="0px" y="0px"
	 viewBox="0 0 160 30.5" style="enable-background:new 0 0 160 30.5;" xml:space="preserve">
<style type="text/css">
	.st0{fill:#1A2144;}
	.st1{fill:#F7124A;}
</style>
<title>Combined Shape</title>
<desc>Created with Sketch.</desc>
<g>
	<path class="st0" d="M105.9,13.9v8c0,0.1-0.1,0.2-0.2,0.2H103c-0.1,0-0.2-0.1-0.2-0.2v-7.3c0-1.4-0.7-2.3-2.2-2.3
		c-1.4,0-2.1,0.9-2.1,2.1v7.5c0,0.1-0.1,0.2-0.2,0.2h-2.6c-0.1,0-0.2-0.1-0.2-0.2V5.3c0-0.1,0.1-0.2,0.2-0.2h2.6
		c0.1,0,0.2,0.1,0.2,0.2v5.6c0.5-0.8,1.8-1.5,3-1.5C104.2,9.4,105.9,11.1,105.9,13.9 M93.3,9.7h-2.9V6.9c0-0.1-0.1-0.2-0.2-0.2h-2.5
		c-0.1,0-0.2,0.1-0.2,0.2v2.8h-1.8c-0.1,0-0.2,0.1-0.2,0.2v2.2c0,0.1,0.1,0.2,0.2,0.2h1.7v5.4c0,1.5,0.3,2.6,0.9,3.3
		c0.6,0.7,1.8,1,3.4,1h1.1c0.1,0,0.2-0.1,0.2-0.2v-2.5c0-0.1-0.1-0.2-0.2-0.2h-0.8c-1.3,0-1.6-0.5-1.6-1.8v-5.1h2.9
		c0.1,0,0.2-0.1,0.2-0.2V9.9C93.5,9.8,93.5,9.7,93.3,9.7 M65,17.9c-0.1,0-0.2,0-0.3,0.1c-0.4,1.1-1.1,1.7-2.2,1.7
		c-1.7,0-2.8-1.3-2.8-3.8c0-2.5,1.1-3.8,2.8-3.8c1.1,0,1.8,0.6,2.2,1.7c0,0.1,0.1,0.2,0.3,0.1l2.2-0.9c0.2-0.1,0.3-0.2,0.2-0.3
		c-0.7-2-2.5-3.3-4.9-3.3c-1.6,0-3,0.6-4.1,1.7c-1.1,1.1-1.6,2.7-1.6,4.8c0,2,0.5,3.6,1.6,4.8c1.1,1.1,2.5,1.7,4.1,1.7
		c2.4,0,4.1-1.2,5-3.3c0-0.1,0-0.2-0.1-0.2L65,17.9z M33,17.9c-0.1,0-0.2,0-0.3,0.1c-0.4,1.1-1.1,1.7-2.2,1.7
		c-1.7,0-2.8-1.3-2.8-3.8c0-2.5,1.1-3.8,2.8-3.8c1.1,0,1.8,0.6,2.2,1.7c0,0.1,0.1,0.2,0.3,0.1l2.2-0.9c0.2-0.1,0.3-0.2,0.2-0.3
		c-0.7-2-2.5-3.3-4.9-3.3c-1.6,0-3,0.6-4.1,1.7c-1.1,1.1-1.6,2.7-1.6,4.8c0,2,0.5,3.6,1.6,4.8c1.1,1.1,2.5,1.7,4.1,1.7
		c2.4,0,4.1-1.2,5-3.3c0-0.1,0-0.2-0.1-0.2L33,17.9z M45.5,10.6c1,0.8,1.4,2,1.4,3.7v7.6c0,0.1-0.1,0.3-0.3,0.3h-2
		c-0.1,0-0.3-0.1-0.3-0.3v-0.9h0c0,0-0.9,1.5-3.3,1.5c-3,0-4.4-1.6-4.4-3.6c0-2.1,1.1-3.1,4.2-3.8c1.4-0.3,2.3-0.6,2.6-0.8
		c0.3-0.2,0.5-0.5,0.5-0.9c0-0.7-0.7-1.3-2.1-1.3c-1.6,0-2.1,0.7-2.5,1.8c0,0.1-0.2,0.2-0.3,0.1L37,13c-0.1,0-0.1-0.1-0.1-0.2
		c0.6-2,2.3-3.4,5-3.4C43.4,9.4,44.6,9.8,45.5,10.6 M44.1,16c-0.4,0.3-1.2,0.7-2.7,1c-1.6,0.4-1.9,0.9-1.9,1.5
		c0,0.8,0.6,1.3,1.8,1.3c1.8,0,2.7-0.8,2.7-1.8V16z M55.8,9.7h-2.9V6.9c0-0.1-0.1-0.2-0.2-0.2h-2.5c-0.1,0-0.2,0.1-0.2,0.2v2.8h-1.8
		c-0.1,0-0.2,0.1-0.2,0.2v2.2c0,0.1,0.1,0.2,0.2,0.2h1.7v5.4c0,1.5,0.3,2.6,0.9,3.3c0.6,0.7,1.8,1,3.4,1h1.1c0.1,0,0.2-0.1,0.2-0.2
		v-2.5c0-0.1-0.1-0.2-0.2-0.2h-0.8c-1.3,0-1.6-0.5-1.6-1.8v-5.1h2.9c0.1,0,0.2-0.1,0.2-0.2V9.9C56,9.8,55.9,9.7,55.8,9.7 M75.2,9.4
		c-1.2,0-2.6,0.7-3,1.5V5.3c0-0.1-0.1-0.2-0.2-0.2h-2.6c-0.1,0-0.2,0.1-0.2,0.2v16.6c0,0.1,0.1,0.2,0.2,0.2H72
		c0.1,0,0.2-0.1,0.2-0.2v-7.5c0-1.3,0.7-2.1,2.1-2.1c1.5,0,2.2,1,2.2,2.3v7.3c0,0.1,0.1,0.2,0.2,0.2h2.6c0.1,0,0.2-0.1,0.2-0.2v-8
		C79.5,11.1,77.8,9.4,75.2,9.4 M117.2,11.2c1.1,1.2,1.6,2.7,1.6,4.7v0.7c0,0.1-0.1,0.2-0.2,0.2h-8.1c0.1,2,1.2,3.1,3.1,2.9
		c1.1-0.1,1.8-0.9,2.5-1.7c0.1-0.1,0.2-0.1,0.3,0l1.8,1.6c0.1,0.1,0.1,0.2,0,0.3c-1.2,1.7-2.9,2.6-5,2.6c-1.7,0-3.1-0.6-4.2-1.8
		c-1.1-1.2-1.6-2.8-1.6-4.7c0-2,0.5-3.5,1.6-4.7c1.1-1.2,2.4-1.8,4.1-1.8C114.8,9.4,116.2,10,117.2,11.2 M115.9,14.6
		c-0.2-1.6-1.1-2.5-2.7-2.5c-1.5,0-2.5,1.1-2.6,2.5H115.9z M146.1,10c-0.7-0.4-1.4-0.5-1.8-0.5c-1.1,0-2.1,0.6-2.5,1.5h0V9.9
		c0-0.1-0.1-0.1-0.1-0.1h-2.5c-0.1,0-0.2,0.1-0.2,0.2v11.9c0,0.1,0.1,0.2,0.2,0.2h2.6c0.1,0,0.2-0.1,0.2-0.2v-6.6
		c0-1.9,0.7-2.8,2.1-2.8c0.2,0,0.4,0,0.6,0.1c0.1,0,0.1,0,0.2-0.1c0.7-1.2,0.7-1.3,1.4-2.3C146.2,10.1,146.1,10.1,146.1,10
		 M157.3,15.9v0.7c0,0.1-0.1,0.2-0.2,0.2H149c0.1,2,1.2,3.1,3.1,2.9c1.1-0.1,1.8-0.9,2.5-1.7c0.1-0.1,0.2-0.1,0.3,0l1.8,1.6
		c0.1,0.1,0.1,0.2,0,0.3c-1.2,1.7-2.9,2.6-5,2.6c-1.7,0-3.1-0.6-4.2-1.8c-1.1-1.2-1.6-2.8-1.6-4.7c0-2,0.5-3.5,1.6-4.7
		c1.1-1.2,2.4-1.8,4.1-1.8c1.6,0,3,0.6,4,1.8C156.8,12.4,157.3,13.9,157.3,15.9 M154.4,14.6c-0.2-1.6-1.1-2.5-2.7-2.5
		c-1.5,0-2.5,1.1-2.6,2.5H154.4z M136.5,5.1h-2.6c-0.1,0-0.2,0.1-0.2,0.2v2.5c0,0.1,0.1,0.2,0.2,0.2h2.6c0.1,0,0.2-0.1,0.2-0.2V5.3
		C136.7,5.2,136.6,5.1,136.5,5.1 M131.5,5.1h-1.8c-1.8,0-3.2,1.4-3.2,3.2v1.4h-1.8c-0.1,0-0.2,0.1-0.2,0.2v2.2
		c0,0.1,0.1,0.2,0.2,0.2h1.7v9.6c0,0.1,0.1,0.2,0.2,0.2h2.6c0.1,0,0.2-0.1,0.2-0.2v-9.6h2c0.1,0,0.2-0.1,0.2-0.2V9.9
		c0-0.1-0.1-0.2-0.2-0.2h-2.1v-1c0-0.7,0.3-1,1-1h1.1c0.1,0,0.2-0.1,0.2-0.2V5.3C131.7,5.2,131.6,5.1,131.5,5.1 M136.5,9.7h-2.6
		c-0.1,0-0.2,0.1-0.2,0.2v2.4v9.6c0,0.1,0.1,0.2,0.2,0.2h2.6c0.1,0,0.2-0.1,0.2-0.2V9.9C136.7,9.8,136.6,9.7,136.5,9.7"/>
	<path class="st0" d="M158.2,6.4c-0.6,0-1.2,0.5-1.2,1.2c0,0.6,0.5,1.2,1.2,1.2c0.6,0,1.2-0.5,1.2-1.2
		C159.4,6.9,158.9,6.4,158.2,6.4 M158.2,8.5c-0.5,0-1-0.4-1-1c0-0.5,0.4-1,1-1c0.5,0,1,0.4,1,1C159.2,8.1,158.8,8.5,158.2,8.5"/>
	<path class="st0" d="M158.7,7.3c0-0.1,0-0.2-0.1-0.3C158.5,7,158.4,7,158.2,7h-0.4v1.1h0.2V7.7h0.2l0.3,0.4h0.2l-0.3-0.4
		C158.6,7.6,158.7,7.5,158.7,7.3 M158.2,7.5H158V7.1h0.2c0.1,0,0.2,0,0.2,0c0,0,0.1,0.1,0.1,0.1c0,0.1,0,0.1-0.1,0.2
		C158.4,7.5,158.3,7.5,158.2,7.5"/>
</g>
<path class="st1" d="M14,19.7c-0.9,1-2.4,1.1-3.4,0.2c-1.1-0.9-1.1-2.5-0.2-3.5l2.7-2.9c1.4-1.6,1.9-2.7,2.2-3.7
	c2.4,2.2,2.4,5.8,0,8.5L14,19.7z M16.8,22.9c-2.7,2.5-6.7,2.5-9.3-0.1c-2.6-2.6-2.6-6.8-0.1-9.5c0,0,4-4.3,4-4.3
	c2.5-2.7,2.5-6.4,0.1-8.6c-0.3,1-1.2,2.4-2.5,3.9L3.8,9.9C-0.6,14.6-0.5,22,4.2,26.4c3.3,3.2,8,4.1,11.9,2.4c5-2.2,5-7.3,3.1-9.4
	C19.2,19.4,18.5,21.3,16.8,22.9z"/>
</svg>
